<svg fill="#FFFFFF" xmlns="http://www.w3.org/2000/svg"  viewBox="0 0 50 50" width="500px" height="500px"><path d="M 25 2 C 12.309295 2 2 12.309295 2 25 C 2 37.690705 12.309295 48 25 48 C 37.690705 48 48 37.690705 48 25 C 48 12.309295 37.690705 2 25 2 z M 25 4 C 36.609824 4 46 13.390176 46 25 C 46 36.609824 36.609824 46 25 46 C 13.390176 46 4 36.609824 4 25 C 4 13.390176 13.390176 4 25 4 z M 25.5 8.0078125 C 23.945246 8.0078125 22.630883 9.0489709 22.183594 10.462891 C 21.68134 10.181896 21.112228 10.007812 20.5 10.007812 C 18.676759 10.007812 17.181366 11.436196 17.037109 13.224609 A 1.0001 1.0001 0 0 0 17 13.5 A 1.0001 1.0001 0 0 0 17 13.535156 L 17 14.363281 C 16.543143 14.142507 16.038039 14.007812 15.5 14.007812 C 13.658058 14.007812 12.148498 15.465097 12.03125 17.279297 A 1.0001 1.0001 0 0 0 12 17.535156 L 12 29.595703 C 12 30.800088 12.180819 33.54835 13.695312 36.123047 C 15.209808 38.697743 18.189092 41 23.207031 41 C 26.417678 41 28.69339 40.459356 30.441406 39.492188 C 32.189422 38.525019 33.350764 37.164796 34.412109 35.726562 C 36.487187 32.915988 40.082031 27.488281 40.082031 27.488281 A 1.0001 1.0001 0 0 0 40.089844 27.476562 C 41.165295 25.803193 40.774346 23.549161 39.126953 22.505859 A 1.0001 1.0001 0 0 0 39.117188 22.5 C 37.453525 21.472907 35.245991 22.086163 34.160156 23.761719 L 34.197266 23.708984 L 34 23.974609 L 34 14.5 A 1.0001 1.0001 0 0 0 33.962891 14.222656 C 33.817694 12.435155 32.32258 11.007813 30.5 11.007812 C 29.95886 11.007812 29.451048 11.144021 28.992188 11.367188 A 1.0001 1.0001 0 0 0 28.962891 11.222656 C 28.817694 9.4351547 27.32258 8.0078125 25.5 8.0078125 z M 25.5 9.9921875 C 26.321079 9.9921875 26.966417 10.620742 27.001953 11.431641 C 27.00204 11.433615 27.001874 11.435524 27.001953 11.4375 A 1.0001 1.0001 0 0 0 27 11.5 L 27 15 L 27 23 A 1.0001 1.0001 0 0 0 29 23 L 29 15 L 29 14.417969 C 29.04235 13.613863 29.683649 12.992187 30.5 12.992188 C 31.323078 12.992188 31.96933 13.623731 32.001953 14.4375 A 1.0001 1.0001 0 0 0 32 14.5 L 32 27 A 1.0001 1.0001 0 0 0 33.802734 27.595703 L 35.802734 24.900391 A 1.0001 1.0001 0 0 0 35.839844 24.849609 C 36.376669 24.021232 37.398057 23.796437 38.060547 24.201172 C 38.726249 24.627771 38.939102 25.568469 38.408203 26.394531 C 38.397943 26.409991 34.798813 31.833535 32.802734 34.537109 A 1.0001 1.0001 0 0 0 32.802734 34.539062 C 31.79708 35.901781 30.85814 36.975606 29.472656 37.742188 C 28.087172 38.508769 26.195384 39 23.207031 39 C 18.768971 39 16.644927 37.189975 15.419922 35.107422 C 14.194917 33.024868 14 30.570319 14 29.595703 L 14 17.535156 A 1.0001 1.0001 0 0 0 13.996094 17.453125 C 14.020755 16.631616 14.671527 15.992187 15.5 15.992188 C 16.316351 15.992188 16.95765 16.613863 17 17.417969 L 17 24 A 1.0001 1.0001 0 0 0 19 24 L 19 13.535156 L 19 13.5 A 1.0001 1.0001 0 0 0 18.998047 13.441406 C 19.028717 12.625725 19.675589 11.992187 20.5 11.992188 C 21.316351 11.992188 21.95765 12.613863 22 13.417969 L 22 14 L 22 23 A 1.0001 1.0001 0 0 0 24 23 L 24 14 L 24 11.5 A 1.0001 1.0001 0 0 0 23.998047 11.441406 C 24.028717 10.625725 24.675589 9.9921875 25.5 9.9921875 z"/></svg>