<svg fill="#FFFFFF" xmlns="http://www.w3.org/2000/svg"  viewBox="0 0 72 72" width="64px" height="64px"><path d="M46.431 49.294c-.43 0-.866-.093-1.281-.289-1.497-.708-2.137-2.497-1.429-3.995 1.333-2.817 2.009-5.84 2.009-8.984 0-3.163-.684-6.202-2.031-9.031-.712-1.496-.077-3.286 1.419-3.999 1.496-.71 3.286-.078 3.999 1.418 1.734 3.642 2.613 7.548 2.613 11.611 0 4.039-.87 7.924-2.585 11.55C48.632 48.66 47.555 49.294 46.431 49.294zM56.223 57.526c-.648 0-1.305-.18-1.891-.557-1.626-1.046-2.096-3.211-1.05-4.837 3.083-4.794 4.713-10.356 4.713-16.086 0-6.292-1.938-12.306-5.604-17.393-1.13-1.568-.774-3.756.794-4.886 1.565-1.132 3.754-.776 4.886.793 4.529 6.286 6.924 13.715 6.924 21.485 0 7.076-2.015 13.948-5.826 19.874C58.5 56.959 57.373 57.526 56.223 57.526zM7 30.728C7 26 11 23.73 14.16 23.73l3.221.073 11.377-11.376c1.721-1.721 4.286-2.233 6.538-1.301C37.546 12.058 39 14.234 39 16.669v38.555c0 2.393-1.419 4.554-3.615 5.506-.769.333-1.58.495-2.385.495-1.496 0-2.97-.56-4.104-1.624L17.424 48.846l-3.401.011C12 49 7 47 7 41.857V30.728z"/></svg>